<?xml version="1.0" encoding="utf-8"?>
<!-- Generator: Adobe Illustrator 25.2.1, SVG Export Plug-In . SVG Version: 6.00 Build 0)  -->
<svg version="1.1" id="Layer_1" xmlns="http://www.w3.org/2000/svg" xmlns:xlink="http://www.w3.org/1999/xlink" x="0px" y="0px"
	 width="366px" height="366px" viewBox="0 0 366 366" enable-background="new 0 0 366 366" xml:space="preserve">
<ellipse transform="matrix(0.9002 -0.4354 0.4354 0.9002 -58.9253 101.6469)" fill="none" stroke="#2B1B5C" stroke-width="5" stroke-miterlimit="10" cx="192.35" cy="179.41" rx="133.197" ry="178.519"/>
<ellipse transform="matrix(0.9002 -0.4354 0.4354 0.9002 -59.6808 99.4103)" fill="none" stroke="#BF1F87" stroke-width="5" stroke-miterlimit="10" cx="187.092" cy="179.94" rx="133.197" ry="178.519"/>
<g>
	<rect x="19.101" y="94.48" fill="none" width="413.403" height="393.4"/>
	<path fill="#2B1B5C" d="M60.044,146.134c-2.143,0-4.522,1.666-4.522,5.951c0,88.788,32.611,89.502,32.611,100.451
		c0,4.999-2.38,7.855-6.903,7.855c-7.617,0-16.187-0.714-23.804-0.714c-12.14,0-21.423,0.714-26.66,0.714
		c-3.571,0-5.951-2.856-5.951-7.142c0-10.235,16.425-14.044,16.425-98.547c0-28.564-1.429-29.993-8.094-29.993
		c-2.856,0-4.761,0.714-6.665,0.714c-4.046,0-6.188-3.333-6.188-7.617c0-3.809,2.142-7.379,6.188-7.379
		c11.664,0,24.756,0.952,37.61,0.952c9.998,0,23.328-0.952,33.326-0.952c7.141,0,8.569,4.761,9.997,12.378
		c6.189,32.373,22.138,57.367,37.134,86.169c1.429,2.856,4.523,3.57,6.665,3.57c2.381,0,4.761-1.904,4.761-5.95
		c0-70.936-28.802-75.696-28.802-88.312c0-4.284,3.333-7.855,8.807-7.855c7.379,0.476,14.521,0.714,20.947,0.714
		c8.093,0,15.71-0.238,22.138-0.714c5.475,0,8.331,3.571,8.331,8.093c0,9.521-18.566,19.043-18.566,72.839
		c0,16.186,3.57,49.75,3.57,58.081c0,7.617-1.904,10.95-8.808,10.95c-5.237,0-11.664-0.952-17.376-0.952
		c-6.665,0-13.33,0.952-19.043,0.952c-6.665,0-9.521-2.856-12.616-8.808c-21.662-41.895-40.705-90.692-49.512-103.07
		C63.853,146.848,61.948,146.134,60.044,146.134z"/>
	<path fill="#2B1B5C" d="M249.999,259.439c-19.519,0-46.894,0.952-55.7,0.952c-3.095,0-4.999-2.38-4.999-6.188
		c0-3.095,1.19-5.951,3.809-9.284c9.046-12.378,45.465-63.794,71.888-108.068c1.904-3.333,2.38-5.237,2.38-6.903
		c0-3.809-2.856-5.475-6.903-5.475c-18.566,0-28.564,16.662-37.609,31.183c-6.903,11.426-13.092,21.423-21.899,21.423
		c-3.333,0-5.713-1.19-5.713-5.951s1.904-14.044,1.904-29.755c0-10.235-1.429-17.615-1.429-21.186c0-5.475,2.856-9.759,9.521-9.759
		c20.472,0,40.942,0.952,61.414,0.952c19.757,0,47.607-0.952,56.652-0.952c3.57,0,5.475,2.619,5.475,6.427
		c0,2.618-0.714,5.713-5.713,12.616c-4.284,5.475-51.892,79.504-68.555,104.022c-2.855,4.047-3.332,6.189-3.332,8.094
		c0,3.332,2.381,4.761,7.141,4.761c20.233,0,33.088-18.091,43.562-33.088c7.141-10.473,13.33-19.519,19.995-19.519
		c3.57,0,6.188,0.952,6.188,5.713c0,3.57-0.952,11.188-0.952,25.708c0,14.758,1.19,21.899,1.19,24.756
		c0,6.189-2.856,10.474-9.046,10.474C296.654,260.392,273.089,259.439,249.999,259.439z"/>
</g>
<g>
	<rect x="32.597" y="94.48" fill="none" width="413.403" height="393.4"/>
	<path fill="#BF1F87" d="M73.54,146.134c-2.142,0-4.523,1.666-4.523,5.951c0,88.788,32.611,89.502,32.611,100.451
		c0,4.999-2.38,7.855-6.903,7.855c-7.617,0-16.187-0.714-23.804-0.714c-12.14,0-21.423,0.714-26.66,0.714
		c-3.57,0-5.951-2.856-5.951-7.142c0-10.235,16.424-14.044,16.424-98.547c0-28.564-1.428-29.993-8.093-29.993
		c-2.856,0-4.761,0.714-6.665,0.714c-4.047,0-6.189-3.333-6.189-7.617c0-3.809,2.143-7.379,6.189-7.379
		c11.664,0,24.756,0.952,37.61,0.952c9.998,0,23.328-0.952,33.325-0.952c7.142,0,8.569,4.761,9.998,12.378
		c6.188,32.373,22.137,57.367,37.134,86.169c1.428,2.856,4.522,3.57,6.665,3.57c2.38,0,4.761-1.904,4.761-5.95
		c0-70.936-28.803-75.696-28.803-88.312c0-4.284,3.333-7.855,8.807-7.855c7.379,0.476,14.521,0.714,20.947,0.714
		c8.093,0,15.71-0.238,22.138-0.714c5.475,0,8.332,3.571,8.332,8.093c0,9.521-18.567,19.043-18.567,72.839
		c0,16.186,3.571,49.75,3.571,58.081c0,7.617-1.904,10.95-8.808,10.95c-5.237,0-11.664-0.952-17.376-0.952
		c-6.665,0-13.33,0.952-19.043,0.952c-6.665,0-9.521-2.856-12.616-8.808c-21.661-41.895-40.704-90.692-49.512-103.07
		C77.348,146.848,75.444,146.134,73.54,146.134z"/>
	<path fill="#BF1F87" d="M263.495,259.439c-19.52,0-46.894,0.952-55.701,0.952c-3.095,0-4.999-2.38-4.999-6.188
		c0-3.095,1.19-5.951,3.809-9.284c9.046-12.378,45.466-63.794,71.888-108.068c1.904-3.333,2.38-5.237,2.38-6.903
		c0-3.809-2.855-5.475-6.902-5.475c-18.567,0-28.564,16.662-37.61,31.183c-6.903,11.426-13.092,21.423-21.899,21.423
		c-3.332,0-5.713-1.19-5.713-5.951s1.904-14.044,1.904-29.755c0-10.235-1.428-17.615-1.428-21.186c0-5.475,2.856-9.759,9.521-9.759
		c20.471,0,40.942,0.952,61.413,0.952c19.757,0,47.607-0.952,56.653-0.952c3.57,0,5.475,2.619,5.475,6.427
		c0,2.618-0.714,5.713-5.713,12.616c-4.285,5.475-51.893,79.504-68.555,104.022c-2.856,4.047-3.332,6.189-3.332,8.094
		c0,3.332,2.38,4.761,7.141,4.761c20.233,0,33.087-18.091,43.561-33.088c7.142-10.473,13.33-19.519,19.995-19.519
		c3.571,0,6.189,0.952,6.189,5.713c0,3.57-0.952,11.188-0.952,25.708c0,14.758,1.189,21.899,1.189,24.756
		c0,6.189-2.855,10.474-9.045,10.474C310.15,260.392,286.584,259.439,263.495,259.439z"/>
</g>
<g>
</g>
<g>
</g>
<g>
</g>
<g>
</g>
<g>
</g>
<g>
</g>
<g>
</g>
<g>
</g>
<g>
</g>
<g>
</g>
<g>
</g>
<g>
</g>
<g>
</g>
<g>
</g>
<g>
</g>
</svg>
