<?xml version="1.0" encoding="utf-8"?>
<!-- Generator: Adobe Illustrator 25.2.1, SVG Export Plug-In . SVG Version: 6.00 Build 0)  -->
<svg version="1.1" id="Layer_1" xmlns="http://www.w3.org/2000/svg" xmlns:xlink="http://www.w3.org/1999/xlink" x="0px" y="0px"
	 width="500px" height="500px" viewBox="0 0 500 500" enable-background="new 0 0 500 500" xml:space="preserve">
<g id="Layer_2">
	<g>
		<g>
			<path fill="#FFFFFF" d="M248.551,182.927c-0.454,2.109-0.186,3.038-1.875,3.962c-1.17,0.64-2.916,0.828-4.181,1.243
				c-3.278,1.073-6.22,2.361-9.622,1.025c-5.992-2.353-8.591,7.313-2.658,9.643c6.202,2.435,11.98-0.263,17.963-1.969
				c6.485-1.85,8.616-4.739,10.017-11.245C259.545,179.311,249.907,176.629,248.551,182.927L248.551,182.927z"/>
		</g>
	</g>
	<g>
		<g>
			<path fill="#FFFFFF" d="M260.25,237.536c-0.639-2.474-0.982-4.825-1.055-7.382c-0.085-2.992-3.165-6.001-6.329-4.821
				c-1.019,0.38-6.991-4.29-7.934-4.882c-2.233-1.399-4.334-2.992-6.99-3.35c-5.248-0.706-9.312,4.59-11.643,8.719
				c-6.554,11.609,4.162,21.396,12.027,28.728c3.659,3.411,8.376,8.983,13.938,8.361c4.966-0.555,7.35-5.779,5.784-10.19
				c-0.887-2.498-2.887-3.679-4.377-5.702c-1.98-2.69-0.388-5.143-0.865-8.037c-0.906-5.499-8.297-6.469-12.742-7.008
				c-1.939-0.235-4.528,1.708-4.821,3.671c-1.141,7.64,2.887,17.04,9.945,20.953c8.398,4.656,12.934-6.98,12.583-13.384
				c-1.667,1.667-3.333,3.333-5,5c9.778-1.189,8.143-12.745,8.746-20.259c0.515-6.415-9.488-6.382-10,0
				c-0.147,1.838,0.199,10.395-1.022,11.57c1.179-0.488,2.357-0.976,3.536-1.464c-0.42,0.051-0.839,0.102-1.259,0.153
				c-2.566,0.312-5.162,2.039-5,5c0.06,1.097-0.601,3.007-0.374,3.83c-0.618,0.991-0.202,1.257,1.248,0.798
				c1.911,0.391,2.037-0.005,0.377-1.187c-1.511-2.868-4.71-4.508-4.136-8.352c-1.607,1.224-3.214,2.447-4.821,3.671
				c0.644,0.078,3.665,0.424,4.296,1.208c-0.488-1.179-0.976-2.357-1.464-3.536c-0.281,3.552-0.631,6.454,0.775,9.833
				c0.548,1.316,1.147,2.342,2.018,3.47c0.556,0.792,1.2,1.505,1.933,2.137c1.016,1.379,1.298,1.356,0.848-0.069
				c0.996-0.766,1.992-1.532,2.988-2.298c-1.148,0.444-8.53-7.578-9.888-8.934c-2.948-2.942-8.595-7.399-6.976-12.102
				c0.375-1.088,1.086-1.974,1.783-2.868c0.441-0.566,2.357-1.974,1.035-1.787c-1.425,0.203,2.078,1.81,2.473,2.058
				c1.029,0.645,2.058,1.289,3.087,1.934c3.846,2.41,7.832,5.716,12.553,3.956c-2.11-1.607-4.219-3.214-6.329-4.821
				c0.098,3.417,0.556,6.728,1.412,10.041C252.215,246.421,261.862,243.782,260.25,237.536L260.25,237.536z"/>
		</g>
	</g>
	<g>
		<g>
			<path fill="#FFFFFF" d="M350.443,307.324c0.19,0.078,0.381,0.156,0.571,0.234c-0.996-0.766-1.992-1.532-2.988-2.298
				c0.086,0.187,0.172,0.374,0.258,0.561c1.882-2.448,3.764-4.897,5.647-7.345c-4.936-0.837-9.865-1.73-14.81-2.511
				c-3.996-0.631-7.967-0.294-9.484,4.114c-1.252,3.639,0.258,8.858,0.953,12.576c0.771,4.127,2.699,7.795,5.891,10.562
				c2.671,2.316,6.416,4.629,10.023,4.828c4.228,0.234,5.753-2.829,7.551-6.005c1.816-3.208,5.395-4.553,4.96-8.76
				c-0.425-4.114-4.461-7.918-6.786-11.152c-2.649-3.685-7.487-2.897-9.139,1.194c-1.957,4.847-2.615,10.017-3.48,15.141
				c3.214,0,6.429,0,9.643,0c-0.974-4.639-1.747-9.353-3.433-13.798c-2.073-5.466-9.104-4.273-9.821,1.329
				c-0.34,2.655-0.033,5.202,0.855,7.729c2.119,6.032,11.784,3.436,9.643-2.658c-0.632-1.798-0.739-3.182-0.498-5.07
				c-3.274,0.443-6.548,0.886-9.821,1.329c1.685,4.443,2.46,9.16,3.433,13.798c0.979,4.667,8.82,4.875,9.643,0
				c0.865-5.124,1.523-10.294,3.48-15.141c-3.046,0.398-6.092,0.796-9.139,1.194c1.245,1.732,2.49,3.464,3.734,5.196
				c0.622,0.866,1.245,1.732,1.867,2.598c1.124-3.066,1.105-3.974-0.057-2.723c-1.165,0.627-2.32,2.494-3.016,3.578
				c-0.508,0.759-0.938,1.559-1.289,2.402c-0.575,1.161-0.638,1.358-0.19,0.591c1.284-0.168,2.569-0.336,3.853-0.504
				c-2.987-0.478-6.195-2.417-7.501-5.272c-0.627-1.37-0.766-3.116-0.992-4.584c-0.103-0.669-1.043-4.928-1.021-4.978
				c-0.996,0.766-1.992,1.532-2.988,2.298c1.765-0.694,5.711,0.719,7.437,1.012c2.614,0.443,5.227,0.886,7.841,1.329
				c4.464,0.757,7.533-3.235,5.647-7.345c-0.805-1.754-2.135-2.403-3.817-3.093C347.153,295.239,344.562,304.909,350.443,307.324
				L350.443,307.324z"/>
		</g>
	</g>
	<g>
		<g>
			<path fill="#FFFFFF" d="M246.528,229.641c-0.638,1.742-1.318,5.804-2.747,7.106c1.179-0.488,2.357-0.976,3.536-1.464
				c1.725-0.076,1.089,0.635,0.593-1.173c-0.349-1.27-1.241-2.549-1.814-3.727c-1.089-2.236-2.177-4.472-3.266-6.709
				c-2.495-5.125-10.731-1.525-9.139,3.853c2.155,7.276,4.514,14.481,7.081,21.621c1.467,4.081,8.899,5.376,9.643,0
				c0.642-4.637,0.89-9.152,0.446-13.82c-0.514-5.402-8.158-7.043-9.821-1.329c-0.925,3.177-1.348,6.378-1.271,9.686
				c2.508-1.439,5.016-2.878,7.524-4.317c1.229,1.655,1.523,1.545,0.88-0.332c-0.186-0.988-0.371-1.976-0.557-2.963
				c-0.371-1.976-0.742-3.951-1.113-5.927c-1.187-6.317-10.826-3.642-9.643,2.658c0.945,5.032,0.745,12.067,5.386,15.198
				c3.152,2.127,7.609-0.685,7.524-4.317c-0.058-2.475,0.224-4.658,0.914-7.027c-3.274-0.443-6.548-0.886-9.821-1.329
				c0.354,3.719,0.425,7.451-0.089,11.161c3.214,0,6.429,0,9.643,0c-2.566-7.141-4.926-14.346-7.081-21.621
				c-3.046,1.284-6.092,2.569-9.139,3.853c1.693,3.478,3.367,6.967,5.08,10.436c1.266,2.563,2.705,5.209,5.723,5.991
				c7.52,1.948,9.348-7.864,11.173-12.848C258.386,226.246,248.726,223.637,246.528,229.641L246.528,229.641z"/>
		</g>
	</g>
	<g>
		<g>
			<path fill="#FFFFFF" d="M232.021,240.34c6.435,0,6.445-10,0-10C225.587,230.34,225.576,240.34,232.021,240.34L232.021,240.34z"/>
		</g>
	</g>
	<g>
		<g>
			<path fill="#FFFFFF" d="M262.318,239.169c-0.148-2.554-0.297-5.109-0.445-7.663c-0.151-2.606-2.191-5.126-5-5
				c-2.579,0.116-5.162,2.204-5,5c0.148,2.554,0.297,5.109,0.445,7.663c0.151,2.606,2.191,5.126,5,5
				C259.897,244.054,262.481,241.966,262.318,239.169L262.318,239.169z"/>
		</g>
	</g>
	<g>
		<g>
			<path fill="#FFFFFF" d="M253.128,230.766c0.016,1.074-0.011,2.146-0.106,3.216c-0.01,0.118-0.223,1.621-0.038,0.492
				c-0.093,0.568-0.191,1.133-0.305,1.697c-0.517,2.556,0.734,5.522,3.492,6.151c2.49,0.567,5.596-0.751,6.151-3.492
				c0.536-2.651,0.846-5.357,0.806-8.063c-0.038-2.614-2.273-5.122-5-5C255.451,225.886,253.087,227.964,253.128,230.766
				L253.128,230.766z"/>
		</g>
	</g>
</g>
<g>
	<path fill="#FFBEB6" d="M107.15,234.632l-3.9-3.5l4.8,1.7c3.2,1.2,4.7,2.3,4.7,3.5C112.75,238.932,111.55,238.532,107.15,234.632z"
		/>
	<path fill="#FFBEB6" d="M104.65,229.332c-8.2-2.9-12.9-5.6-12.9-7.4c0-1.3,10.1-0.6,17.4,1.3c4.5,1.1,4.6,1.2,4.6,5
		c0,2.2-0.3,3.9-0.7,3.8C112.55,232.032,108.85,230.732,104.65,229.332L104.65,229.332z"/>
	<path fill="#FFBEB6" d="M250.45,226.132c-3-2.4-5-2.5-6.7-0.5c-1.6,1.9-4.9,1.9-8.8-0.1c-1.8-0.8-3.6-1.3-4.2-0.9
		c-0.5,0.3-1-0.3-1-1.4c0-1.8,0.6-2.1,3.9-2.1c2.2,0,4.1,0.5,4.3,1.2c0.3,0.8,1.1,0.7,2.8-0.5c3.3-2.3,9.1-2.2,12.3,0.3
		c1.4,1.1,3.2,2,4.1,2c2.1,0,2.1,2.6,0,3.4C254.55,228.532,253.15,228.232,250.45,226.132L250.45,226.132z"/>
	<path fill="#FFBEB6" d="M105.75,218.332l-6.5-1.7l4.5-0.3c6.1-0.5,11,0.6,11,2.3C114.75,220.432,114.05,220.432,105.75,218.332z"/>
	<path fill="#FFBEB6" d="M232.95,209.932c-4.5-2.2-13.2-11-13.2-13.5c0-0.8-0.7-2.2-1.6-3.1c-3.2-3.2,0.1-18.2,4-18.2
		c0.8,0,1.6-0.7,2-1.5c0.3-0.8,1.7-2,3.1-2.5s2.5-1.4,2.5-1.9c0-1.7,12.7-7.2,17.9-7.8c4.8-0.5,4.9-0.5,7.5,3.4
		c4.8,7.2,6.8,14.1,7.3,24.8c0.6,12.2-0.7,16.9-5.6,20.2C252.15,213.032,239.35,213.032,232.95,209.932L232.95,209.932z
		 M249.05,194.932c2.3-1.2,5.6-8.3,5.7-12v-2.8l-4.1,4.1c-4.7,4.7-11,7.8-15.7,7.9c-3.9,0-3.4,1.5,1.2,3.6
		C239.35,197.132,245.55,196.732,249.05,194.932z"/>
	<path fill="#FFBEB6" d="M228.75,159.832c0-4,1.5-5.7,5.2-5.7c1.6,0,3.7-0.5,4.8-1.2c2.9-1.8,7.2,0.8,6.8,4.1
		c-0.3,2.2-0.9,2.6-4,2.9c-2,0.2-4.2,1-4.8,1.8c-0.7,0.8-2.8,1.4-4.6,1.4C228.95,163.132,228.75,162.932,228.75,159.832z"/>
</g>
<g>
	<path fill="#A1C3FC" d="M243.95,260.932c-0.7-0.7-1.2-2.4-1.2-3.9c0-2.3-0.5-2.8-2.7-3.1c-2.4-0.3-2.8-0.8-3.1-4
		c-0.3-3.4-0.6-3.8-3.1-3.8c-3.7,0-5.3-2.1-4.9-6.1c0.3-3.2,0.4-3.2,9.6,7.4c5.2,5.9,9.5,10.7,9.7,10.7s2-2.9,4.1-6.5
		s4.2-6.5,4.6-6.5c1.4,0,0.8,6.8-0.7,8.4c-0.8,0.8-1.5,1.9-1.5,2.5s-0.7,1.1-1.5,1.1c-0.9,0-1.5,0.9-1.5,2.5c0,2.2-0.4,2.5-3.3,2.5
		C246.65,262.132,244.65,261.632,243.95,260.932L243.95,260.932z"/>
	<path fill="#A1C3FC" d="M259.45,240.432c1.7-4.9,4.3-5.6,4.3-1.3c0,2.5-0.4,3-2.5,3C259.35,242.132,258.95,241.732,259.45,240.432z
		"/>
</g>
<g>
	<path fill="#FFBEB6" d="M141.65,255.232c1.2-0.8,1.2-1.6-0.3-5.5c-1-2.6-2.5-5-3.4-5.5c-1-0.4-5.2-1.1-9.4-1.4
		c-8-0.6-18.8-4.4-18.8-6.7c0-0.6-0.4-0.9-0.8-0.6c-0.5,0.3-0.9-0.1-0.9-0.8c0-1.1,0.7-1.1,3.1-0.4c3.6,1.2,11.3,2.3,10.6,1.5
		c-0.3-0.3-3.4-1.6-7-3c-6.2-2.3-6.4-2.5-6.5-5.9c-0.1-3.4,0-3.5,2.9-3.1c1.7,0.2,5.7,1.1,9,1.9c3.2,0.8,6,1.3,6.3,1
		c0.5-0.5-11-6.6-12.6-6.6c-2.4,0-6.4-2.1-5.5-3c1.4-1.4,13.7,1.5,21,4.9l6.2,2.9l-1.3-3.8c-0.7-2.1-2.6-5.7-4.1-7.9
		c-4.1-6.3-2-6.1,4.5,0.3c4.7,4.7,6.2,7,7.5,11.5c2.8,9.7,3.7,12,6.7,18.7c1.6,3.5,3.4,6.2,3.9,5.9c0.6-0.3,1,0.2,1,1.3
		c0,2.3-5.8,5.2-10.3,5.2C141.15,256.132,140.65,255.832,141.65,255.232L141.65,255.232z"/>
	<path fill="#FFBEB6" d="M254.55,227.432c-3.4-0.8-2-3.3,1.7-3.3c1.9,0,3.5,0.4,3.5,1C259.75,226.432,256.55,227.832,254.55,227.432
		z"/>
	<path fill="#FFBEB6" d="M235.55,225.332c-3.6-2.2-3.5-3.2,0.1-3.2c4.2,0,6.1,1,6.1,3.1
		C241.75,227.632,239.15,227.632,235.55,225.332z"/>
	<path fill="#FFBEB6" d="M235.25,211.332c-4.5-1.5-5-2-5.3-5.1l-0.3-3.3l2.8,1.9c4.6,3.1,8.1,4.3,13.1,4.3c4.9,0,10.8-2.7,11.8-5.5
		c1.1-2.7,2.4-1.6,2.4,2c0,3.3-0.4,3.8-4.2,5.5C250.25,213.532,241.95,213.632,235.25,211.332z"/>
	<path fill="#FFBEB6" d="M259.75,198.932c0-2.5,1.2-5.8,2.1-5.8c0.5,0,0.9,1.6,0.9,3.5c0,2.4-0.5,3.5-1.5,3.5
		C260.45,200.132,259.75,199.532,259.75,198.932z"/>
	<path fill="#FFBEB6" d="M222.75,197.132c0-0.5-0.7-1-1.5-1s-1.5-0.7-1.5-1.5s-0.7-1.5-1.5-1.5c-1,0-1.5-1-1.5-3.1
		c0-1.7,0.7-3.7,1.5-4.5c0.8-0.9,1.5-2.6,1.5-3.9c0-1.2,0.7-2.6,1.6-2.9c2.4-0.9,2.5-0.8,1,1.7c-1.8,2.9-2.7,7.9-1.7,9.6
		c1,1.6,3.5-10,3.2-14.6c-0.2-2.9,0-3.3,2.3-3.3c1.4,0,2.6-0.5,2.6-1.1c0-2,2.9-3.9,5.9-3.9c3.7,0,4,1.2,0.7,3
		c-2.8,1.4-6.1,9.2-7.9,18.7c-1.1,5.9-2.7,8.6-2.7,4.5c0-1.9,3.2-14.3,4.6-17.7c0.7-1.8,0.6-1.8-0.9-0.6c-2.7,2.2-6.4,18.7-4.6,20.6
		c1.2,1.2,1.1,2.5-0.1,2.5C223.25,198.132,222.75,197.732,222.75,197.132z"/>
	<path fill="#FFBEB6" d="M257.25,171.832c-0.8-2.1-1.7-3.7-2-3.7c-0.2,0-1.9,0.9-3.7,2c-3.5,2.1-6.8,2.6-6.8,1c0-0.5,0.7-1,1.6-1
		c2.6,0,7.5-3.3,7-4.7c-0.3-0.7-0.1-1.3,0.5-1.3s1.3,0.9,1.6,2c0.3,1.1,0.9,2,1.3,2c1.1,0,3.4,5.9,2.6,6.7
		C259.05,175.132,258.05,173.832,257.25,171.832z"/>
	<path fill="#FFBEB6" d="M238.75,165.532c0-2,0.5-2.4,3-2.4c1.7,0,3-0.4,3-1c0-0.5,1.6-1,3.5-1c5.6,0,4.1,2.3-3,4.6l-6.5,2.2
		V165.532z"/>
	<path fill="#FFBEB6" d="M232.95,159.932c-0.7-0.7-1.2-2.4-1.2-3.9c0-2.5,0.4-2.8,4.7-3.5c5.3-0.8,9.6,1.1,10.1,4.5
		c0.3,1.7-0.2,2.1-2.2,2.1c-1.4,0-2.8,0.5-3.1,1C240.35,161.532,234.45,161.432,232.95,159.932z"/>
</g>
<g>
	<path fill="#FFBEB6" d="M140.75,256.532c0-1.7,5.3-5,10.1-6.4c2.9-0.9,3.8,0.2,2.1,2.6
		C151.15,255.432,140.75,258.732,140.75,256.532L140.75,256.532z"/>
	<path fill="#FFBEB6" d="M236.75,225.632c-0.946-0.335-2.294-1.5-4.7-1.5c-2.2,0-2.3-0.4-2.3-8.5c0-6.4-0.3-8.5-1.3-8.5
		c-1.6,0-5.7-4.1-5.7-5.7c0-0.6-0.7-1.3-1.5-1.7c-0.8-0.3-1.5-1.4-1.5-2.5c0-1.1-0.6-2.1-1.2-2.3c-0.9-0.3-1.3-3-1.3-8.5
		c0-6.6,0.4-8.5,1.9-10.2c1.1-1.2,2.6-2.1,3.5-2.1s2.1-1,2.6-2.2c0.6-1.4,2.1-2.4,3.8-2.6c1.5-0.2,2.7-0.9,2.7-1.6
		c0-1.5,7.2-4.9,14.3-6.7c5.9-1.4,7.4-0.4,11.7,8.5c4.8,9.8,6.5,24.7,3.8,34.1c-0.6,2.2-1.4,8.3-1.7,13.5l-0.6,9.5l-3.2,0.3
		c-2.1,0.2-4.2-0.4-6.3-1.9l-3-2.3l-3,2.2C240.314,226.32,238.135,226.123,236.75,225.632z M252.35,208.232c3.3-1.5,4.5-2.8,6.3-7.2
		c2.1-4.7,2.3-6.5,1.8-13.9c-0.5-7.9-2.9-17.4-4.6-18.5c-0.5-0.2-2.5,0.5-4.7,1.5c-4.1,2.1-6.4,2.5-6.4,1.1c0-0.5,1.2-1.1,2.8-1.4
		c1.5-0.3,3.6-1.2,4.7-2.1c1.6-1.2,1.8-1.7,0.7-2.7c-1.6-1.7-8.5,0.1-15.6,3.9c-4.6,2.5-5.1,3.2-7.2,9.5c-1.3,3.7-2.6,8.8-3,11.2
		c-0.3,2.5-1,4.8-1.5,5.1c-1.5,0.9-1-3,1.5-11.7c1.4-4.6,2.4-8.5,2.2-8.6c-0.9-1-2.8,2.3-4,7.2c-3.2,13.2-3.3,12.6,3,19.4
		C236.25,209.632,244.15,211.932,252.35,208.232L252.35,208.232z M223.05,184.232c1.3-5.5,1.3-6.1,0-4.8c-1.7,1.7-3.6,9.4-2.7,10.8
		C221.25,191.732,221.45,191.232,223.05,184.232z"/>
	<path fill="#FFBEB6" d="M225.75,161.832c0-3.4,3.3-7.7,5.8-7.7c0.7,0,1.2-0.4,1.2-0.9s1.6-1.2,3.5-1.5c4.7-0.9,10.5,2.4,10.5,6
		c0,1.7-0.6,2.4-2,2.4c-1.1,0-4.5,1.1-7.6,2.5c-3.1,1.4-6.9,2.5-8.5,2.5C226.05,165.132,225.75,164.832,225.75,161.832z"/>
</g>
<g>
	<path fill="#5CB1F7" d="M171.55,338.432c-7.4-13.5-17.8-33.7-17.8-34.8c0-0.3,1.6-0.5,3.5-0.5s3.5,0.4,3.5,0.9
		c0,0.4,1.7,1.1,3.8,1.5c8.1,1.3,13.8,2.5,15.4,3.1c1.4,0.5,1.1-0.5-1.2-4.7c-3.2-5.8-4.2-13.1-1.5-10.8c1.3,1.1,1.5,0.8,1.5-1.8
		c0-9.1,5.1-25,10.5-32.7c1.9-2.7,4.2-6.7,5.2-8.8c1.9-4.4,6.8-7.3,22.5-13.2c10.6-4,10.8-4,10.8-2c0,0.8,3.3,5.1,7.4,9.7
		c4,4.6,8.7,9.8,10.3,11.7l2.9,3.4l4.3-7.2c2.3-3.9,4.6-7.1,5.1-7.1c0.6,0,1,20.2,1,53.5v53.5h-39.8h-39.8L171.55,338.432
		L171.55,338.432z"/>
	<path fill="#5CB1F7" d="M140.75,256.232c0-0.5,2.1-1.9,4.8-3.2c8.3-4.1,8.2-4.1,8.2-1.4c0,2.1-0.5,2.5-3,2.5c-2,0-3,0.5-3,1.5
		s-1.1,1.5-3.5,1.5C142.35,257.132,140.75,256.732,140.75,256.232L140.75,256.232z"/>
	<path fill="#5CB1F7" d="M259.95,239.632c2.9-4.4,3.8-4.4,3.8,0c0,3.2-0.2,3.5-3,3.5h-3L259.95,239.632z"/>
</g>
<g>
	<path fill="#5CB1F7" d="M253.75,351.332c0-0.4,0.6-1.4,1.3-2.1c1-1.1,1-1.3,0-0.7c-0.8,0.4-1.3,0.2-1.3-0.6c0-0.8,0.6-2,1.3-2.7
		c1-1.1,1-1.3,0-0.7c-0.8,0.4-1.3,0.2-1.3-0.6c0-0.8,0.6-2,1.3-2.7c1-1.1,1-1.3,0-0.7c-0.8,0.4-1.3,0.2-1.3-0.6c0-0.8,0.6-2,1.3-2.7
		c1-1.1,1-1.3,0-0.7c-0.8,0.4-1.3,0.2-1.3-0.6c0-0.8,0.6-2,1.3-2.7c1-1.1,1-1.3,0-0.7c-0.8,0.4-1.3,0.2-1.3-0.6c0-0.8,0.6-2,1.3-2.7
		c1-1.1,1-1.3,0-0.7c-0.8,0.4-1.3,0.2-1.3-0.6c0-0.8,0.6-2,1.3-2.7c1-1.1,1-1.3,0-0.7c-0.8,0.4-1.3,0.2-1.3-0.6c0-0.8,0.6-2,1.3-2.7
		c1-1.1,1-1.3,0-0.7c-0.8,0.4-1.3,0.2-1.3-0.6c0-0.8,0.6-2,1.3-2.7c1-1.1,1-1.3,0-0.7c-0.8,0.4-1.3,0.2-1.3-0.6c0-0.8,0.6-2,1.3-2.7
		c1-1.1,1-1.3,0-0.7c-0.8,0.4-1.3,0.2-1.3-0.6c0-0.8,0.6-2,1.3-2.7c1-1.1,1-1.3,0-0.7c-0.8,0.4-1.3,0.2-1.3-0.6c0-0.8,0.6-2,1.3-2.7
		c1-1.1,1-1.3,0-0.7c-0.8,0.4-1.3,0.2-1.3-0.6c0-0.8,0.6-2,1.3-2.7c1-1.1,1-1.3,0-0.7c-0.8,0.4-1.3,0.2-1.3-0.6c0-0.8,0.6-2,1.3-2.7
		c1-1.1,1-1.3,0-0.7c-0.8,0.4-1.3,0.2-1.3-0.6c0-0.8,0.6-2,1.3-2.7c1-1.1,1-1.3,0-0.7c-0.8,0.4-1.3,0.2-1.3-0.6c0-0.8,0.6-2,1.3-2.7
		c1-1.1,1-1.3,0-0.7c-0.8,0.4-1.3,0.2-1.3-0.6c0-0.8,0.6-2,1.3-2.7c1-1.1,1-1.3,0-0.7c-0.8,0.4-1.3,0.2-1.3-0.6c0-0.8,0.6-2,1.3-2.7
		c1-1.1,1-1.3,0-0.7c-0.8,0.4-1.3,0.2-1.3-0.6c0-0.8,0.6-2,1.3-2.7c1-1.1,1-1.3,0-0.7c-0.8,0.4-1.3,0.2-1.3-0.6c0-0.8,0.6-2,1.3-2.7
		c1-1.1,1-1.3,0-0.7c-0.8,0.4-1.3,0.2-1.3-0.6c0-0.8,0.6-2,1.3-2.7c1-1.1,1-1.3,0-0.7c-0.8,0.4-1.3,0.2-1.3-0.6c0-0.8,0.6-2,1.3-2.7
		c1-1.1,1-1.3,0-0.7c-0.8,0.4-1.3,0.2-1.3-0.6c0-0.8,0.6-2,1.3-2.7c1-1.1,1-1.3,0-0.7c-0.8,0.4-1.3,0.2-1.3-0.6c0-0.8,0.6-2,1.3-2.7
		c1-1.1,1-1.3,0-0.7c-0.8,0.5-1.3,0.1-1.3-0.9c0-0.9-0.4-1.4-0.9-1.1c-1.2,0.8,3.4-8.8,6.7-13.9c1.5-2.2,2.7-4.2,2.8-4.4
		c0.4-0.5,16.4,5,23.7,8.2l6.7,3v52.3v52.4h-19.5C262.55,352.132,253.75,351.732,253.75,351.332L253.75,351.332z"/>
	<path fill="#5CB1F7" d="M181.05,313.732c-0.3-0.5-0.1-0.6,0.5-0.2c0.6,0.3,1.3,0.2,1.6-0.3c0.3-0.5-0.8-0.7-2.4-0.6
		c-1.7,0.1-3.3-0.1-3.6-0.6c-0.3-0.5-1.1-0.6-1.7-0.2c-1.9,1.2-3.6,1.2-4.4,0.1c-0.3-0.6-0.1-0.8,0.5-0.4c0.6,0.3,1.3,0.2,1.6-0.2
		c0.3-0.5-0.7-0.8-2.2-0.7s-3.3-0.3-4.1-0.9c-1.2-0.9-1.3-0.8-0.6,0.4c0.7,1.2,0.5,1.2-1.1-0.1c-1.1-0.9-3.5-1.5-5.6-1.4
		c-3,0.1-3.5-0.1-2.6-1.2c0.8-1,0.7-1.2-0.4-0.8s-3.1-3-8.1-13.8c-3.7-7.9-6.7-14.6-6.7-15c0-1,4.4-0.9,5.6,0.1
		c0.5,0.5,3.6,1.4,6.9,2.1s7.6,1.7,9.6,2.2s4.7,0.9,6,0.9c2.1,0,3.6,2.2,10.7,15.4c4.5,8.5,8.2,15.5,8.2,15.8
		C188.75,315.132,181.55,314.632,181.05,313.732L181.05,313.732z"/>
	<path fill="#5CB1F7" d="M213.75,239.632c0-2.2,0.4-2.5,3.6-2.5c4.4,0,4.2,1.8-0.4,3.7
		C213.85,242.132,213.75,242.032,213.75,239.632z"/>
</g>
<g>
	<path fill="#F99595" d="M218.75,177.632c0-4.8,3.1-13.8,5.8-16.9c1.5-1.6,9.2-5.6,10.9-5.6c0.4,0-1.1,1.6-3.3,3.5l-3.9,3.6l3.2-1.6
		c1.8-0.8,3.6-1.6,4-1.6c1.7-0.2,4.3-2,4.3-3.1c0-0.6-1-0.3-2.2,0.8c-1.4,1.2-1.8,1.3-1,0.3c0.6-0.9,0.8-1.9,0.4-2.4
		c-0.4-0.4,0.3-0.5,1.6-0.2c1.2,0.3,2.2,0.1,2.2-0.4s0.7-0.9,1.5-0.9c1.8,0,11.1,8.3,12.7,11.3c1.4,2.7,0.1,3.3-1.9,0.9l-1.8-2.2
		l-6.6,2.3c-8.6,2.9-11.8,5.1-13.5,9.3c-1.6,3.9-2.8,4.7-1.4,0.8c1.4-3.5,1.3-3.9-0.6-2.3c-0.9,0.8-2.5,3.2-3.5,5.4
		c-1.6,3.5-1.8,3.6-1.3,1l0.5-3l-2.5,2.8c-1.4,1.5-2.8,2.7-3.1,2.7S218.75,180.132,218.75,177.632L218.75,177.632z M243.55,156.032
		c-0.2-0.6-0.8-1-1.3-1s-1.1,0.4-1.3,1c-0.2,0.6,0.4,1.1,1.3,1.1S243.75,156.632,243.55,156.032z"/>
</g>
<g>
	<path fill="#5CB1F7" d="M288.65,351.932c-0.1-0.2-0.2-24-0.3-52.9c-0.1-59.8-1-54.8,8.6-48.4c11.4,7.5,17.3,20.8,19.9,44.5
		c1.7,15.3,0.2,45.7-2.7,55.3c-0.5,1.5-2,1.7-13,1.7C294.35,352.132,288.65,352.032,288.65,351.932z"/>
	<path fill="#5CB1F7" d="M170.75,287.632c-0.5-0.7-2.2-1.1-3.7-1c-1.6,0.1-3.4-0.3-4.2-0.9c-1.2-0.9-1.3-0.8-0.6,0.4
		c0.8,1.3,0.7,1.3-1,0c-1-0.8-3-1.5-4.4-1.5s-3.2-0.4-4-0.9c-1.1-0.7-1.2-0.6-0.6,0.5c0.6,1,0.2,0.9-1.1-0.2c-1-0.9-2.7-1.5-3.6-1.4
		c-1,0.2-2-0.1-2.4-0.6c-0.3-0.5-1-0.7-1.5-0.3c-0.5,0.3-0.9,0.2-0.8-0.3c0.1-0.4-0.7-2.8-1.9-5.3c-1.1-2.5-3.4-7.6-5-11.5l-3-6.9
		l5.1-1.7c2.9-0.8,7.5-2.8,10.4-4.2l5.1-2.7l4,6.3c3.4,5.3,17.2,31.9,17.2,33C174.75,289.332,171.65,288.632,170.75,287.632
		L170.75,287.632z"/>
	<path fill="#5CB1F7" d="M194.75,249.532c0.6-1.4,1.6-3.1,2.3-3.9c3.3-3.3,23.5-11.5,28.3-11.5c5,0,2.3,2.8-5.3,5.5
		c-8.3,2.9-18.1,7.6-22.5,10.6C194.05,252.732,193.65,252.632,194.75,249.532L194.75,249.532z"/>
</g>
<g>
	<path fill="#BF1F87" d="M194.95,248.632c0.9-2.7,1.7-3.5,3.5-3.5c1.3,0,2.3-0.6,2.3-1.4c0-1.7,2.2-2.6,6.1-2.6
		c1.9,0,2.9-0.5,2.9-1.5s1.1-1.5,3.5-1.5c1.9,0,3.5,0.4,3.5,1c0,0.5-3.7,2.7-8.2,4.9c-4.6,2.2-9.7,4.9-11.5,6.1l-3.1,2.1
		L194.95,248.632L194.95,248.632z"/>
	<path fill="#BF1F87" d="M220.75,236.632c0-1.5,0.7-2.5,2.3-2.9c3.7-1,4.7-0.7,4.7,1.2c0,1.3-1.2,2.2-3.5,2.9
		C220.95,238.832,220.75,238.832,220.75,236.632z"/>
	<path fill="#BF1F87" d="M256.75,225.232c0-1.2,0.6-2.1,1.6-2.1c0.9,0,1.4,0.7,1.2,1.7
		C259.05,227.332,256.75,227.632,256.75,225.232L256.75,225.232z"/>
	<path fill="#BF1F87" d="M228.75,222.032c0-2.2,0.5-2.9,2-2.9c1.4,0,2,0.7,2,2.4c0,1.5-0.7,2.6-2,2.9
		C229.05,224.832,228.75,224.432,228.75,222.032z"/>
	<path fill="#BF1F87" d="M256.75,208.132c0-1.2,0.7-3.5,1.6-5.1c3.7-7.3,3.4-22.1-0.7-31.4l-2-4.4l-3.2,1.9c-1.8,1.1-4.1,2-5.2,1.9
		c-1.3-0.1-0.9-0.4,1.1-1c4.5-1.3,5.7-3,4.4-6.5l-1-2.9l2.1,2.5c3.2,3.7,6.8,11.9,8,18.6c1.1,5.7,0.7,21.5-0.7,26.2
		C260.35,210.832,256.75,210.932,256.75,208.132L256.75,208.132z"/>
	<path fill="#BF1F87" d="M228.45,208.432c-0.4-0.3-0.7-1.9-0.7-3.4c0-2.4-0.4-2.8-3.2-3.1c-2.8-0.2-3.4-0.8-3.6-3
		c-0.2-1.6-0.9-2.8-1.7-2.8c-1.8,0-2.5-2.3-2.5-8.5c0-8,0.9-11.5,3.1-11.5s2.2,0,0.8,7.2c-0.8,3.9-0.8,6.1-0.1,7.4
		c0.9,1.7,1.1,1.6,1.7-1.1c3.1-14.9,8.2-27,13.2-31.5c2.6-2.4,2.6-2.4-0.4,1.5c-5.8,7.7-10.4,19.5-11.8,30.6l-0.7,5.6l5.1,5.2
		c2.8,2.9,5.1,5.9,5.1,6.7C232.75,209.132,229.65,209.732,228.45,208.432L228.45,208.432z"/>
	<path fill="#BF1F87" d="M224.75,194.432c0-2.7,4.2-17,6.9-23.5c2.8-6.5,9.1-17.4,9.1-15.6c0,0.4-1.4,3.1-3.1,6
		c-4.3,7.2-8.8,18.7-10.4,26.5C226.05,193.732,224.75,197.032,224.75,194.432z"/>
	<path fill="#BF1F87" d="M220.75,169.632c0-2.8,0.4-3.5,2-3.5s2-0.7,2-3.5c0-3.2,0.2-3.5,3-3.5c2.7,0,3-0.3,3-3c0-1.6,0.5-3,1.1-3
		s1.7-0.7,2.5-1.5c0.9-0.8,2.1-1.5,2.8-1.5c1.8,0,10.6,5.8,10.6,7c0,0.6-1.2,0.3-2.7-0.7c-2.9-2-4.6-2.3-5.8-1.1
		c-0.4,0.4-1.3,0.4-2,0.1c-2-0.7-10.3,8-12.5,13.2C222.45,174.032,220.75,174.432,220.75,169.632z"/>
</g>
<g>
	<path fill="#BF1F87" d="M195.25,248.432c1.8-4.4,3-5.3,6.8-5.3c1.6,0,2.7-0.5,2.7-1.4c0-0.8,2.1-2.2,4.8-3.2
		c2.6-0.9,6.2-2.3,8.1-3.1c4.3-1.7,9.1-1.7,9.1,0c0,0.7-2.4,2.1-5.2,3.1c-9.9,3.5-17.2,6.8-22.5,10.2l-5.3,3.4L195.25,248.432z"/>
	<path fill="#BF1F87" d="M224.75,225.632c0-2.8,0.4-3.5,2-3.5c1.3,0,2-0.7,2-2s0.7-2,2-2c2.9,0,2.6,3.5-0.5,6.2
		c-1.4,1.2-2.5,2.8-2.5,3.5s-0.7,1.3-1.5,1.3C225.25,229.132,224.75,228.032,224.75,225.632z"/>
	<path fill="#BF1F87" d="M256.75,210.932c0-3.9,1.2-6.8,2.6-6.8c1,0,1.4,1.3,1.4,4.5c0,3.8-0.3,4.5-2,4.5
		C257.35,213.132,256.75,212.432,256.75,210.932z"/>
	<path fill="#BF1F87" d="M260.65,196.932c1.6-6.2,1.6-6.2,1.9-2.4c0.4,5-0.5,8.6-2.1,8.6
		C259.35,203.132,259.45,201.932,260.65,196.932z"/>
	<path fill="#BF1F87" d="M261.15,184.732c-0.3-2.1-0.4-3.9-0.1-4.2c0.2-0.3,0.8,1.1,1.1,3.2c0.4,2,0.5,3.8,0.2,4.1
		C262.15,188.132,261.55,186.732,261.15,184.732z"/>
	<path fill="#BF1F87" d="M255.95,168.132c-1.7-2.7-2.8-5-2.3-5c0.4,0,2,2.3,3.5,5c1.5,2.8,2.5,5,2.3,5
		S257.65,170.932,255.95,168.132z"/>
	<path fill="#BF1F87" d="M231.45,163.032c1-1.7,2.4-3.6,3.2-4.2c0.8-0.7,0.2,0.7-1.4,3.1
		C230.05,166.832,228.75,167.632,231.45,163.032L231.45,163.032z"/>
</g>
<g>
	<path fill="#BF1F87" d="M195.15,248.532c6.336-23.111,6.759-39.038,5.85-49.532c-0.194-2.235-1.456-15.868,3.65-30.668
		c1.255-3.638,2.549-6.345,4.6-9c4.625-5.988,13.197-11.923,22.4-10.9c4.5,0.5,14.1,5.3,14.1,7c0,0.4-1.2,0-2.6-1
		c-1.033-0.661-1.691-1.049-2.41-1.115c-1.414-0.128-2.908,0.375-4.69,1.815c-4.31,3.481-6.91,8.587-7.05,8.868
		c-8.303,16.642-8.207,23.608-8,26c0.154,1.772,0.547,3.097,0.65,3.432c1.134,3.701,3.383,6.2,4.9,7.6l2.3,3.1h-3
		c-1.8,0-3.1-0.5-3.2-1.2s-0.5-0.2-0.9,1.2c-1.2,3.7-1.2,31,0,31c0.6,0,1-0.4,1-1c0-0.5,1.2-1,2.6-1c1.19,0,1.899,0.218,2.157,0.684
		c0,0,0.196,0.364,0.044,0.916C227.133,236.242,207.101,244.005,195.15,248.532z"/>
	<path fill="#BF1F87" d="M225.75,224.632c0-2.4,0.5-3.5,1.5-3.5c0.8,0,1.5-0.9,1.5-2c0-1.3,0.7-2,2-2c1.1,0,2,0.6,2,1.3
		c0,3-1.4,5.7-3.1,6.2c-1,0.4-1.9,1.3-1.9,2.1c0,0.8-0.4,1.4-1,1.4C226.25,228.132,225.75,226.532,225.75,224.632z"/>
	<path fill="#BF1F87" d="M256.75,224.632c0-1.6,0.6-2.5,1.5-2.5c0.8,0,1.5,0.9,1.5,1.9s-0.7,2.1-1.5,2.5
		C257.15,226.932,256.75,226.432,256.75,224.632z"/>
	<path fill="#BF1F87" d="M256.75,213.432c0-3.4,1.2-6.3,2.6-6.3c1,0,1.4,1.3,1.4,4c0,3.3-0.3,4-2,4
		C257.55,215.132,256.75,214.432,256.75,213.432z"/>
	<path fill="#BF1F87" d="M257.75,205.632c0-0.2,0.6-1.9,1.4-3.7c0.8-1.8,1.9-4.9,2.4-6.8l1-3.5l0.1,3.5c0.2,6.7-1,11-3,11
		C258.55,206.132,257.75,205.932,257.75,205.632z"/>
	<path fill="#BF1F87" d="M254.95,166.132c-2.5-3.3-3-5.6-0.6-2.5c1.8,2.4,3.6,5.5,3.1,5.5
		C257.25,169.132,256.15,167.832,254.95,166.132z"/>
</g>
<g>
	<path fill="#2B1B5C" d="M217.85,221.932c1.941-16.498,1.951-29.942,3.15-29.932c0.547,0.005,1.632,2.818,2,4
		c0.103,0.332,0.342,1.151,1,2c0.411,0.531,0.834,0.823,1,1c1.375,1.464,2.133,2.117,3,3c1.994,2.029,3.446,3.506,4.235,5.55
		c0.377,0.975,0.416,1.597,0.515,4.882c0.288,9.612,0.139,10.624-0.75,11.568c-1.4,1.487-3.079,1.154-4,3
		c-0.602,1.207-0.464,2.512-0.25,3.432c0.083,1.856,0.167,3.712,0.25,5.568c-2,1-4,2-6,3c-1.188,0.783-2.799,1.584-4,1
		C215.337,238.704,216.711,231.615,217.85,221.932z"/>
	<path fill="#BF1F87" d="M258,219c-0.325-0.032-0.017-8.37,1.35-16.768c0.726-4.46,1.63-8.199,2.4-11c0.3-0.2,0.6-0.4,0.9-0.6
		c-6.288,12.501-6.684,18.859-5.65,22.368c0.597,2.027,2.519,5.98,1,10c-0.492,1.302-1.404,2.768-0.79,3.638
		c0.622,0.881,2.648,0.927,3.79,0.362c7.338-3.633,0.236-43.454,0.45-46.168c0.001-0.009,0.005-0.065,0.01-0.14
		c0.029-0.468,0.057-1.611-0.31-2.96c-0.319-1.173-0.899-2.357-1.1-2.3c-0.28,0.08,0.203,2.555,0.3,3.1
		C261.717,186.238,258.646,219.064,258,219z"/>
	<path fill="#BF1F87" d="M248.25,158.732c-3.3-3.2-5.1-5.4-4-4.8c2.3,1.2,11.1,10,10.4,10.5
		C254.45,164.532,251.55,162.032,248.25,158.732z"/>
</g>
<g>
	<path fill="#E2E2E3" d="M257.75,349.233v-3.492h11.641h11.641v-42.294v-42.294h62.859h62.859v45.786v45.786h-74.5h-74.5V349.233z
		 M354.755,310.043v-9.312h-9.312h-9.312v9.312v9.312h9.312h9.312V310.043z"/>
</g>
<path fill="#F2A19C" d="M94,128"/>
<path fill="#2B1B5C" d="M260,195c-0.883,3.211-1.767,6.421-2.65,9.632l-0.5,6.2c-0.45,10.057-0.4,15.113,0.15,15.168
	c0.1,0.01,0.217-0.146,0.351-0.469c0.758-0.701,1.835-1.86,2.649-3.531c1.586-3.253,1.181-6.404,1-8
	C260.477,209.382,260.18,203.24,260,195z"/>
<path fill="#BF1F87" d="M268,192"/>
<path fill="#2B1B5C" d="M209,299"/>
<path fill="#82B5E8" d="M341,200"/>
<g>
</g>
<g>
</g>
<g>
</g>
<g>
</g>
<g>
</g>
<g>
</g>
<g>
</g>
<g>
</g>
<g>
</g>
<g>
</g>
<g>
</g>
<g>
</g>
<g>
</g>
<g>
</g>
<g>
</g>
</svg>
